<mxfile host="app.diagrams.net" agent="Mozilla/5.0 (Windows NT 10.0; Win64; x64) AppleWebKit/537.36 (KHTML, like Gecko) Chrome/137.0.0.0 Safari/537.36 Edg/137.0.0.0" version="27.1.3">
  <diagram name="Страница — 1" id="usEMdE1Fe-U6U5BnxpNu">
    <mxGraphModel dx="8850" dy="4517" grid="0" gridSize="10" guides="1" tooltips="1" connect="1" arrows="1" fold="1" page="0" pageScale="1" pageWidth="827" pageHeight="1169" math="0" shadow="0">
      <root>
        <mxCell id="0" />
        <mxCell id="1" parent="0" />
        <mxCell id="IaGc1_YIKuCVrqvYVxo--4" value="найти рецепт" style="rounded=1;whiteSpace=wrap;html=1;arcSize=40;fontColor=#000000;fillColor=#ffffc0;strokeColor=#ff0000;" parent="1" vertex="1">
          <mxGeometry x="-815" y="-324" width="120" height="40" as="geometry" />
        </mxCell>
        <mxCell id="IaGc1_YIKuCVrqvYVxo--5" value="" style="edgeStyle=orthogonalEdgeStyle;html=1;verticalAlign=bottom;endArrow=open;endSize=8;strokeColor=#ff0000;rounded=0;" parent="1" source="IaGc1_YIKuCVrqvYVxo--4" edge="1">
          <mxGeometry relative="1" as="geometry">
            <mxPoint x="-755" y="-224" as="targetPoint" />
          </mxGeometry>
        </mxCell>
        <mxCell id="IaGc1_YIKuCVrqvYVxo--6" value="" style="ellipse;html=1;shape=startState;fillColor=#000000;strokeColor=#ff0000;" parent="1" vertex="1">
          <mxGeometry x="-770" y="-413" width="30" height="30" as="geometry" />
        </mxCell>
        <mxCell id="IaGc1_YIKuCVrqvYVxo--7" value="" style="edgeStyle=orthogonalEdgeStyle;html=1;verticalAlign=bottom;endArrow=open;endSize=8;strokeColor=#ff0000;rounded=0;" parent="1" source="IaGc1_YIKuCVrqvYVxo--6" edge="1">
          <mxGeometry relative="1" as="geometry">
            <mxPoint x="-755" y="-323" as="targetPoint" />
          </mxGeometry>
        </mxCell>
        <mxCell id="IaGc1_YIKuCVrqvYVxo--8" value="" style="rhombus;whiteSpace=wrap;html=1;fontColor=#000000;fillColor=#ffffc0;strokeColor=#ff0000;" parent="1" vertex="1">
          <mxGeometry x="-796" y="-225" width="80" height="40" as="geometry" />
        </mxCell>
        <mxCell id="IaGc1_YIKuCVrqvYVxo--9" value="" style="edgeStyle=orthogonalEdgeStyle;html=1;align=left;verticalAlign=bottom;endArrow=open;endSize=8;strokeColor=#ff0000;rounded=0;entryX=0.5;entryY=0;entryDx=0;entryDy=0;" parent="1" source="IaGc1_YIKuCVrqvYVxo--8" target="IaGc1_YIKuCVrqvYVxo--15" edge="1">
          <mxGeometry x="-1" relative="1" as="geometry">
            <mxPoint x="-565" y="-172" as="targetPoint" />
          </mxGeometry>
        </mxCell>
        <mxCell id="IaGc1_YIKuCVrqvYVxo--10" value="" style="edgeStyle=orthogonalEdgeStyle;html=1;align=left;verticalAlign=top;endArrow=open;endSize=8;strokeColor=#ff0000;rounded=0;entryX=0.5;entryY=0;entryDx=0;entryDy=0;" parent="1" source="IaGc1_YIKuCVrqvYVxo--8" target="IaGc1_YIKuCVrqvYVxo--11" edge="1">
          <mxGeometry x="-1" relative="1" as="geometry">
            <mxPoint x="-756" y="-125" as="targetPoint" />
          </mxGeometry>
        </mxCell>
        <mxCell id="IaGc1_YIKuCVrqvYVxo--11" value="воспользоваться фильтрами" style="rounded=1;whiteSpace=wrap;html=1;arcSize=40;fontColor=#000000;fillColor=#ffffc0;strokeColor=#ff0000;" parent="1" vertex="1">
          <mxGeometry x="-816" y="-71" width="120" height="40" as="geometry" />
        </mxCell>
        <mxCell id="IaGc1_YIKuCVrqvYVxo--12" value="" style="edgeStyle=orthogonalEdgeStyle;html=1;verticalAlign=bottom;endArrow=open;endSize=8;strokeColor=#ff0000;rounded=0;entryX=0.5;entryY=0;entryDx=0;entryDy=0;" parent="1" source="IaGc1_YIKuCVrqvYVxo--11" target="IaGc1_YIKuCVrqvYVxo--20" edge="1">
          <mxGeometry relative="1" as="geometry">
            <mxPoint x="-755" y="-26" as="targetPoint" />
          </mxGeometry>
        </mxCell>
        <mxCell id="IaGc1_YIKuCVrqvYVxo--13" value="воспользоваться поиском на странице" style="rounded=1;whiteSpace=wrap;html=1;arcSize=40;fontColor=#000000;fillColor=#ffffc0;strokeColor=#ff0000;" parent="1" vertex="1">
          <mxGeometry x="-658" y="-21" width="120" height="40" as="geometry" />
        </mxCell>
        <mxCell id="IaGc1_YIKuCVrqvYVxo--14" value="" style="edgeStyle=orthogonalEdgeStyle;html=1;verticalAlign=bottom;endArrow=open;endSize=8;strokeColor=#ff0000;rounded=0;entryX=0.5;entryY=0;entryDx=0;entryDy=0;" parent="1" source="IaGc1_YIKuCVrqvYVxo--13" target="IaGc1_YIKuCVrqvYVxo--23" edge="1">
          <mxGeometry relative="1" as="geometry">
            <mxPoint x="-578" y="60" as="targetPoint" />
            <Array as="points">
              <mxPoint x="-598" y="79" />
              <mxPoint x="-598" y="79" />
            </Array>
          </mxGeometry>
        </mxCell>
        <mxCell id="IaGc1_YIKuCVrqvYVxo--15" value="" style="rhombus;whiteSpace=wrap;html=1;fontColor=#000000;fillColor=#ffffc0;strokeColor=#ff0000;" parent="1" vertex="1">
          <mxGeometry x="-638" y="-126" width="80" height="40" as="geometry" />
        </mxCell>
        <mxCell id="IaGc1_YIKuCVrqvYVxo--16" value="" style="edgeStyle=orthogonalEdgeStyle;html=1;align=left;verticalAlign=bottom;endArrow=open;endSize=8;strokeColor=#ff0000;rounded=0;entryX=0.5;entryY=0;entryDx=0;entryDy=0;" parent="1" source="IaGc1_YIKuCVrqvYVxo--15" target="IaGc1_YIKuCVrqvYVxo--18" edge="1">
          <mxGeometry x="-1" relative="1" as="geometry">
            <mxPoint x="-421" y="-83.92617449664431" as="targetPoint" />
            <Array as="points">
              <mxPoint x="-442" y="-106" />
            </Array>
          </mxGeometry>
        </mxCell>
        <mxCell id="IaGc1_YIKuCVrqvYVxo--17" value="" style="edgeStyle=orthogonalEdgeStyle;html=1;align=left;verticalAlign=top;endArrow=open;endSize=8;strokeColor=#ff0000;rounded=0;entryX=0.5;entryY=0;entryDx=0;entryDy=0;" parent="1" source="IaGc1_YIKuCVrqvYVxo--15" target="IaGc1_YIKuCVrqvYVxo--13" edge="1">
          <mxGeometry x="-1" relative="1" as="geometry">
            <mxPoint x="-567" y="-22" as="targetPoint" />
            <Array as="points" />
          </mxGeometry>
        </mxCell>
        <mxCell id="IaGc1_YIKuCVrqvYVxo--18" value="найти рецепт вручную&amp;nbsp;" style="rounded=1;whiteSpace=wrap;html=1;arcSize=40;fontColor=#000000;fillColor=#ffffc0;strokeColor=#ff0000;" parent="1" vertex="1">
          <mxGeometry x="-502" y="-19" width="120" height="40" as="geometry" />
        </mxCell>
        <mxCell id="IaGc1_YIKuCVrqvYVxo--19" value="" style="edgeStyle=orthogonalEdgeStyle;html=1;verticalAlign=bottom;endArrow=open;endSize=8;strokeColor=#ff0000;rounded=0;entryX=1;entryY=0.5;entryDx=0;entryDy=0;" parent="1" source="IaGc1_YIKuCVrqvYVxo--18" target="IaGc1_YIKuCVrqvYVxo--23" edge="1">
          <mxGeometry relative="1" as="geometry">
            <mxPoint x="-419" y="59" as="targetPoint" />
            <Array as="points">
              <mxPoint x="-442" y="149" />
            </Array>
          </mxGeometry>
        </mxCell>
        <mxCell id="IaGc1_YIKuCVrqvYVxo--20" value="" style="rhombus;whiteSpace=wrap;html=1;fontColor=#000000;fillColor=#ffffc0;strokeColor=#ff0000;" parent="1" vertex="1">
          <mxGeometry x="-796" y="129" width="80" height="40" as="geometry" />
        </mxCell>
        <mxCell id="IaGc1_YIKuCVrqvYVxo--23" value="" style="rhombus;whiteSpace=wrap;html=1;fontColor=#000000;fillColor=#ffffc0;strokeColor=#ff0000;" parent="1" vertex="1">
          <mxGeometry x="-638" y="129" width="80" height="40" as="geometry" />
        </mxCell>
        <mxCell id="IaGc1_YIKuCVrqvYVxo--28" value="" style="edgeStyle=orthogonalEdgeStyle;html=1;verticalAlign=bottom;endArrow=open;endSize=8;strokeColor=#ff0000;rounded=0;exitX=0;exitY=0.5;exitDx=0;exitDy=0;entryX=1;entryY=0.5;entryDx=0;entryDy=0;" parent="1" source="IaGc1_YIKuCVrqvYVxo--23" target="IaGc1_YIKuCVrqvYVxo--20" edge="1">
          <mxGeometry relative="1" as="geometry">
            <mxPoint x="-705" y="328" as="targetPoint" />
            <mxPoint x="-705" y="268" as="sourcePoint" />
          </mxGeometry>
        </mxCell>
        <mxCell id="IaGc1_YIKuCVrqvYVxo--29" value="" style="edgeStyle=orthogonalEdgeStyle;html=1;verticalAlign=bottom;endArrow=open;endSize=8;strokeColor=#ff0000;rounded=0;exitX=0.5;exitY=1;exitDx=0;exitDy=0;entryX=0.489;entryY=0.002;entryDx=0;entryDy=0;entryPerimeter=0;" parent="1" source="IaGc1_YIKuCVrqvYVxo--20" target="IaGc1_YIKuCVrqvYVxo--30" edge="1">
          <mxGeometry relative="1" as="geometry">
            <mxPoint x="-756" y="251" as="targetPoint" />
            <mxPoint x="-633" y="290" as="sourcePoint" />
          </mxGeometry>
        </mxCell>
        <mxCell id="IaGc1_YIKuCVrqvYVxo--30" value="открыть найденный рецепт" style="rounded=1;whiteSpace=wrap;html=1;arcSize=40;fontColor=#000000;fillColor=#ffffc0;strokeColor=#ff0000;" parent="1" vertex="1">
          <mxGeometry x="-815" y="254" width="120" height="40" as="geometry" />
        </mxCell>
        <mxCell id="IaGc1_YIKuCVrqvYVxo--31" value="" style="edgeStyle=orthogonalEdgeStyle;html=1;verticalAlign=bottom;endArrow=open;endSize=8;strokeColor=#ff0000;rounded=0;entryX=0.5;entryY=0;entryDx=0;entryDy=0;" parent="1" source="IaGc1_YIKuCVrqvYVxo--30" target="IaGc1_YIKuCVrqvYVxo--32" edge="1">
          <mxGeometry relative="1" as="geometry">
            <mxPoint x="-756" y="351" as="targetPoint" />
          </mxGeometry>
        </mxCell>
        <mxCell id="IaGc1_YIKuCVrqvYVxo--32" value="" style="ellipse;html=1;shape=endState;fillColor=#000000;strokeColor=#ff0000;" parent="1" vertex="1">
          <mxGeometry x="-770" y="355" width="30" height="30" as="geometry" />
        </mxCell>
        <mxCell id="F6zSeRQlWIKn3YhWenbm-3" value="&lt;span style=&quot;color: rgb(29, 33, 37); font-family: -apple-system, BlinkMacSystemFont, &amp;quot;Segoe UI&amp;quot;, Roboto, &amp;quot;Helvetica Neue&amp;quot;, Arial, &amp;quot;Noto Sans&amp;quot;, &amp;quot;Liberation Sans&amp;quot;, sans-serif, &amp;quot;Apple Color Emoji&amp;quot;, &amp;quot;Segoe UI Emoji&amp;quot;, &amp;quot;Segoe UI Symbol&amp;quot;, &amp;quot;Noto Color Emoji&amp;quot;; font-size: 15px; font-style: normal; font-variant-ligatures: normal; font-variant-caps: normal; font-weight: 400; letter-spacing: normal; orphans: 2; text-align: left; text-indent: 0px; text-transform: none; widows: 2; word-spacing: 0px; -webkit-text-stroke-width: 0px; white-space: normal; background-color: rgb(255, 255, 255); text-decoration-thickness: initial; text-decoration-style: initial; text-decoration-color: initial; float: none; display: inline !important;&quot;&gt;диаграмма деятельности&lt;/span&gt;" style="text;whiteSpace=wrap;html=1;" vertex="1" parent="1">
          <mxGeometry x="-653.9995238095239" y="-382.99952380952385" width="120" height="40" as="geometry" />
        </mxCell>
        <mxCell id="F6zSeRQlWIKn3YhWenbm-13" value="ФОРМА ФИЛЬТРОВ" style="shape=umlLifeline;perimeter=lifelinePerimeter;whiteSpace=wrap;html=1;container=1;dropTarget=0;collapsible=0;recursiveResize=0;outlineConnect=0;portConstraint=eastwest;newEdgeStyle={&quot;curved&quot;:0,&quot;rounded&quot;:0};" vertex="1" parent="1">
          <mxGeometry x="-1636" y="-293" width="100" height="487" as="geometry" />
        </mxCell>
        <mxCell id="F6zSeRQlWIKn3YhWenbm-22" value="" style="html=1;points=[[0,0,0,0,5],[0,1,0,0,-5],[1,0,0,0,5],[1,1,0,0,-5]];perimeter=orthogonalPerimeter;outlineConnect=0;targetShapes=umlLifeline;portConstraint=eastwest;newEdgeStyle={&quot;curved&quot;:0,&quot;rounded&quot;:0};" vertex="1" parent="F6zSeRQlWIKn3YhWenbm-13">
          <mxGeometry x="45" y="160" width="10" height="42" as="geometry" />
        </mxCell>
        <mxCell id="F6zSeRQlWIKn3YhWenbm-14" value="БД" style="shape=umlLifeline;perimeter=lifelinePerimeter;whiteSpace=wrap;html=1;container=1;dropTarget=0;collapsible=0;recursiveResize=0;outlineConnect=0;portConstraint=eastwest;newEdgeStyle={&quot;curved&quot;:0,&quot;rounded&quot;:0};" vertex="1" parent="1">
          <mxGeometry x="-1090" y="-293" width="100" height="477" as="geometry" />
        </mxCell>
        <mxCell id="F6zSeRQlWIKn3YhWenbm-30" value="" style="html=1;points=[[0,0,0,0,5],[0,1,0,0,-5],[1,0,0,0,5],[1,1,0,0,-5]];perimeter=orthogonalPerimeter;outlineConnect=0;targetShapes=umlLifeline;portConstraint=eastwest;newEdgeStyle={&quot;curved&quot;:0,&quot;rounded&quot;:0};" vertex="1" parent="F6zSeRQlWIKn3YhWenbm-14">
          <mxGeometry x="48" y="278" width="10" height="38" as="geometry" />
        </mxCell>
        <mxCell id="F6zSeRQlWIKn3YhWenbm-15" value="СЕРВЕР" style="shape=umlLifeline;perimeter=lifelinePerimeter;whiteSpace=wrap;html=1;container=1;dropTarget=0;collapsible=0;recursiveResize=0;outlineConnect=0;portConstraint=eastwest;newEdgeStyle={&quot;curved&quot;:0,&quot;rounded&quot;:0};" vertex="1" parent="1">
          <mxGeometry x="-1279" y="-293" width="100" height="483" as="geometry" />
        </mxCell>
        <mxCell id="F6zSeRQlWIKn3YhWenbm-28" value="" style="html=1;points=[[0,0,0,0,5],[0,1,0,0,-5],[1,0,0,0,5],[1,1,0,0,-5]];perimeter=orthogonalPerimeter;outlineConnect=0;targetShapes=umlLifeline;portConstraint=eastwest;newEdgeStyle={&quot;curved&quot;:0,&quot;rounded&quot;:0};" vertex="1" parent="F6zSeRQlWIKn3YhWenbm-15">
          <mxGeometry x="50" y="240" width="10" height="38" as="geometry" />
        </mxCell>
        <mxCell id="F6zSeRQlWIKn3YhWenbm-33" value="" style="html=1;points=[[0,0,0,0,5],[0,1,0,0,-5],[1,0,0,0,5],[1,1,0,0,-5]];perimeter=orthogonalPerimeter;outlineConnect=0;targetShapes=umlLifeline;portConstraint=eastwest;newEdgeStyle={&quot;curved&quot;:0,&quot;rounded&quot;:0};" vertex="1" parent="F6zSeRQlWIKn3YhWenbm-15">
          <mxGeometry x="40" y="316" width="10" height="38" as="geometry" />
        </mxCell>
        <mxCell id="F6zSeRQlWIKn3YhWenbm-16" value="ПОЛЬЗОВАТЕЛЬ" style="shape=umlActor;verticalLabelPosition=bottom;verticalAlign=top;html=1;" vertex="1" parent="1">
          <mxGeometry x="-1818" y="-310" width="30" height="60" as="geometry" />
        </mxCell>
        <mxCell id="F6zSeRQlWIKn3YhWenbm-17" value="&lt;div&gt;&lt;br&gt;&lt;/div&gt;&lt;div&gt;&lt;br&gt;&lt;/div&gt;" style="endArrow=none;dashed=1;html=1;rounded=0;strokeColor=default;startFill=0;" edge="1" parent="1" source="F6zSeRQlWIKn3YhWenbm-21">
          <mxGeometry width="160" relative="1" as="geometry">
            <mxPoint x="-1805" y="-224" as="sourcePoint" />
            <mxPoint x="-1804" y="186" as="targetPoint" />
          </mxGeometry>
        </mxCell>
        <mxCell id="F6zSeRQlWIKn3YhWenbm-19" value="заполнение полей фильтров&amp;nbsp;&lt;div&gt;(выбор фильтров)&lt;/div&gt;" style="html=1;verticalAlign=bottom;endArrow=block;curved=0;rounded=0;" edge="1" parent="1" target="F6zSeRQlWIKn3YhWenbm-22">
          <mxGeometry width="80" relative="1" as="geometry">
            <mxPoint x="-1803" y="-134" as="sourcePoint" />
            <mxPoint x="-1607" y="-134" as="targetPoint" />
          </mxGeometry>
        </mxCell>
        <mxCell id="F6zSeRQlWIKn3YhWenbm-20" value="" style="endArrow=none;dashed=1;html=1;rounded=0;strokeColor=default;startFill=0;" edge="1" parent="1" target="F6zSeRQlWIKn3YhWenbm-21">
          <mxGeometry width="160" relative="1" as="geometry">
            <mxPoint x="-1805" y="-224" as="sourcePoint" />
            <mxPoint x="-1804" y="-16" as="targetPoint" />
          </mxGeometry>
        </mxCell>
        <mxCell id="F6zSeRQlWIKn3YhWenbm-21" value="" style="html=1;points=[[0,0,0,0,5],[0,1,0,0,-5],[1,0,0,0,5],[1,1,0,0,-5]];perimeter=orthogonalPerimeter;outlineConnect=0;targetShapes=umlLifeline;portConstraint=eastwest;newEdgeStyle={&quot;curved&quot;:0,&quot;rounded&quot;:0};" vertex="1" parent="1">
          <mxGeometry x="-1810" y="-214" width="10" height="80" as="geometry" />
        </mxCell>
        <mxCell id="F6zSeRQlWIKn3YhWenbm-23" value="БРАУЗЕР" style="shape=umlLifeline;perimeter=lifelinePerimeter;whiteSpace=wrap;html=1;container=1;dropTarget=0;collapsible=0;recursiveResize=0;outlineConnect=0;portConstraint=eastwest;newEdgeStyle={&quot;curved&quot;:0,&quot;rounded&quot;:0};" vertex="1" parent="1">
          <mxGeometry x="-1449" y="-294" width="100" height="486" as="geometry" />
        </mxCell>
        <mxCell id="F6zSeRQlWIKn3YhWenbm-24" value="" style="html=1;points=[[0,0,0,0,5],[0,1,0,0,-5],[1,0,0,0,5],[1,1,0,0,-5]];perimeter=orthogonalPerimeter;outlineConnect=0;targetShapes=umlLifeline;portConstraint=eastwest;newEdgeStyle={&quot;curved&quot;:0,&quot;rounded&quot;:0};" vertex="1" parent="F6zSeRQlWIKn3YhWenbm-23">
          <mxGeometry x="50" y="203" width="10" height="38" as="geometry" />
        </mxCell>
        <mxCell id="F6zSeRQlWIKn3YhWenbm-36" value="" style="html=1;points=[[0,0,0,0,5],[0,1,0,0,-5],[1,0,0,0,5],[1,1,0,0,-5]];perimeter=orthogonalPerimeter;outlineConnect=0;targetShapes=umlLifeline;portConstraint=eastwest;newEdgeStyle={&quot;curved&quot;:0,&quot;rounded&quot;:0};" vertex="1" parent="F6zSeRQlWIKn3YhWenbm-23">
          <mxGeometry x="40" y="355" width="10" height="38" as="geometry" />
        </mxCell>
        <mxCell id="F6zSeRQlWIKn3YhWenbm-25" value="" style="html=1;verticalAlign=bottom;endArrow=block;curved=0;rounded=0;" edge="1" parent="1" target="F6zSeRQlWIKn3YhWenbm-23">
          <mxGeometry width="80" relative="1" as="geometry">
            <mxPoint x="-1591" y="-91" as="sourcePoint" />
            <mxPoint x="-1453" y="-91" as="targetPoint" />
          </mxGeometry>
        </mxCell>
        <mxCell id="F6zSeRQlWIKn3YhWenbm-26" value="передача информации&lt;div&gt;браузеру&lt;/div&gt;" style="text;html=1;align=center;verticalAlign=middle;resizable=0;points=[];autosize=1;strokeColor=none;fillColor=none;" vertex="1" parent="1">
          <mxGeometry x="-1563" y="-130" width="146" height="41" as="geometry" />
        </mxCell>
        <mxCell id="F6zSeRQlWIKn3YhWenbm-27" value="" style="html=1;verticalAlign=bottom;endArrow=block;curved=0;rounded=0;" edge="1" parent="1" target="F6zSeRQlWIKn3YhWenbm-15">
          <mxGeometry width="80" relative="1" as="geometry">
            <mxPoint x="-1389" y="-53" as="sourcePoint" />
            <mxPoint x="-1258" y="-53" as="targetPoint" />
          </mxGeometry>
        </mxCell>
        <mxCell id="F6zSeRQlWIKn3YhWenbm-29" value="запрос к серверу&amp;nbsp;&lt;div&gt;с передачей данных&amp;nbsp;&lt;/div&gt;" style="text;html=1;align=center;verticalAlign=middle;resizable=0;points=[];autosize=1;strokeColor=none;fillColor=none;" vertex="1" parent="1">
          <mxGeometry x="-1378" y="-92" width="135" height="41" as="geometry" />
        </mxCell>
        <mxCell id="F6zSeRQlWIKn3YhWenbm-31" value="" style="html=1;verticalAlign=bottom;endArrow=block;curved=0;rounded=0;" edge="1" parent="1" target="F6zSeRQlWIKn3YhWenbm-14">
          <mxGeometry width="80" relative="1" as="geometry">
            <mxPoint x="-1221" y="-15" as="sourcePoint" />
            <mxPoint x="-1061" y="-15" as="targetPoint" />
          </mxGeometry>
        </mxCell>
        <mxCell id="F6zSeRQlWIKn3YhWenbm-32" value="запрос к бд&lt;div&gt;на получение рецепта&lt;/div&gt;" style="text;html=1;align=center;verticalAlign=middle;resizable=0;points=[];autosize=1;strokeColor=none;fillColor=none;" vertex="1" parent="1">
          <mxGeometry x="-1194" y="-54" width="142" height="41" as="geometry" />
        </mxCell>
        <mxCell id="F6zSeRQlWIKn3YhWenbm-34" value="" style="html=1;verticalAlign=bottom;endArrow=block;curved=0;rounded=0;" edge="1" parent="1" target="F6zSeRQlWIKn3YhWenbm-15">
          <mxGeometry width="80" relative="1" as="geometry">
            <mxPoint x="-1042" y="23" as="sourcePoint" />
            <mxPoint x="-1109" y="23" as="targetPoint" />
          </mxGeometry>
        </mxCell>
        <mxCell id="F6zSeRQlWIKn3YhWenbm-35" value="возврат модели&lt;div&gt;рецепта&lt;/div&gt;" style="text;html=1;align=center;verticalAlign=middle;resizable=0;points=[];autosize=1;strokeColor=none;fillColor=none;" vertex="1" parent="1">
          <mxGeometry x="-1179" y="19" width="106" height="41" as="geometry" />
        </mxCell>
        <mxCell id="F6zSeRQlWIKn3YhWenbm-37" value="" style="html=1;verticalAlign=bottom;endArrow=block;curved=0;rounded=0;exitX=0;exitY=1;exitDx=0;exitDy=0;exitPerimeter=0;" edge="1" parent="1" source="F6zSeRQlWIKn3YhWenbm-33" target="F6zSeRQlWIKn3YhWenbm-23">
          <mxGeometry width="80" relative="1" as="geometry">
            <mxPoint x="-1245" y="60" as="sourcePoint" />
            <mxPoint x="-1387" y="60" as="targetPoint" />
          </mxGeometry>
        </mxCell>
        <mxCell id="F6zSeRQlWIKn3YhWenbm-38" value="фильтрация данных&lt;div&gt;модели рецепта&lt;/div&gt;" style="text;html=1;align=center;verticalAlign=middle;resizable=0;points=[];autosize=1;strokeColor=none;fillColor=none;" vertex="1" parent="1">
          <mxGeometry x="-1372" y="23" width="131" height="41" as="geometry" />
        </mxCell>
        <mxCell id="F6zSeRQlWIKn3YhWenbm-41" value="отобразить отфильтрованные данные на экране" style="text;html=1;align=center;verticalAlign=middle;resizable=0;points=[];autosize=1;strokeColor=none;fillColor=none;" vertex="1" parent="1">
          <mxGeometry x="-1733" y="74" width="288" height="26" as="geometry" />
        </mxCell>
        <mxCell id="F6zSeRQlWIKn3YhWenbm-40" value="" style="html=1;verticalAlign=bottom;endArrow=block;curved=0;rounded=0;" edge="1" parent="1" source="F6zSeRQlWIKn3YhWenbm-36" target="F6zSeRQlWIKn3YhWenbm-39">
          <mxGeometry width="80" relative="1" as="geometry">
            <mxPoint x="-1622" y="100" as="sourcePoint" />
            <mxPoint x="-1782" y="100" as="targetPoint" />
          </mxGeometry>
        </mxCell>
        <mxCell id="F6zSeRQlWIKn3YhWenbm-39" value="" style="html=1;points=[[0,0,0,0,5],[0,1,0,0,-5],[1,0,0,0,5],[1,1,0,0,-5]];perimeter=orthogonalPerimeter;outlineConnect=0;targetShapes=umlLifeline;portConstraint=eastwest;newEdgeStyle={&quot;curved&quot;:0,&quot;rounded&quot;:0};" vertex="1" parent="1">
          <mxGeometry x="-1810" y="100" width="10" height="42" as="geometry" />
        </mxCell>
        <mxCell id="F6zSeRQlWIKn3YhWenbm-42" value="&lt;div style=&quot;text-align: left; text-wrap-mode: wrap;&quot;&gt;&lt;span style=&quot;color: rgb(29, 33, 37); font-family: -apple-system, BlinkMacSystemFont, &amp;quot;Segoe UI&amp;quot;, Roboto, &amp;quot;Helvetica Neue&amp;quot;, Arial, &amp;quot;Noto Sans&amp;quot;, &amp;quot;Liberation Sans&amp;quot;, sans-serif, &amp;quot;Apple Color Emoji&amp;quot;, &amp;quot;Segoe UI Emoji&amp;quot;, &amp;quot;Segoe UI Symbol&amp;quot;, &amp;quot;Noto Color Emoji&amp;quot;; font-size: 15px; background-color: rgb(255, 255, 255); float: none; display: inline !important;&quot;&gt;диаграмма последовательности&amp;nbsp;&lt;/span&gt;&lt;/div&gt;&lt;div&gt;&lt;span style=&quot;color: rgb(29, 33, 37); font-family: -apple-system, BlinkMacSystemFont, &amp;quot;Segoe UI&amp;quot;, Roboto, &amp;quot;Helvetica Neue&amp;quot;, Arial, &amp;quot;Noto Sans&amp;quot;, &amp;quot;Liberation Sans&amp;quot;, sans-serif, &amp;quot;Apple Color Emoji&amp;quot;, &amp;quot;Segoe UI Emoji&amp;quot;, &amp;quot;Segoe UI Symbol&amp;quot;, &amp;quot;Noto Color Emoji&amp;quot;; font-size: 15px; background-color: rgb(255, 255, 255); float: none; display: inline !important;&quot;&gt;&lt;br&gt;&lt;/span&gt;&lt;/div&gt;" style="text;html=1;align=center;verticalAlign=middle;resizable=0;points=[];autosize=1;strokeColor=none;fillColor=none;" vertex="1" parent="1">
          <mxGeometry x="-1702" y="-381" width="243" height="49" as="geometry" />
        </mxCell>
        <mxCell id="F6zSeRQlWIKn3YhWenbm-43" value="&lt;span style=&quot;color: rgb(29, 33, 37); font-family: -apple-system, BlinkMacSystemFont, &amp;quot;Segoe UI&amp;quot;, Roboto, &amp;quot;Helvetica Neue&amp;quot;, Arial, &amp;quot;Noto Sans&amp;quot;, &amp;quot;Liberation Sans&amp;quot;, sans-serif, &amp;quot;Apple Color Emoji&amp;quot;, &amp;quot;Segoe UI Emoji&amp;quot;, &amp;quot;Segoe UI Symbol&amp;quot;, &amp;quot;Noto Color Emoji&amp;quot;; font-size: 15px; font-style: normal; font-variant-ligatures: normal; font-variant-caps: normal; font-weight: 400; letter-spacing: normal; orphans: 2; text-align: left; text-indent: 0px; text-transform: none; widows: 2; word-spacing: 0px; -webkit-text-stroke-width: 0px; white-space: normal; background-color: rgb(255, 255, 255); text-decoration-thickness: initial; text-decoration-style: initial; text-decoration-color: initial; float: none; display: inline !important;&quot;&gt;диаграмма кооперации&lt;/span&gt;" style="text;whiteSpace=wrap;html=1;" vertex="1" parent="1">
          <mxGeometry x="-140" y="-332.0045454545455" width="112" height="40" as="geometry" />
        </mxCell>
        <mxCell id="F6zSeRQlWIKn3YhWenbm-46" value=":фильтры" style="html=1;whiteSpace=wrap;" vertex="1" parent="1">
          <mxGeometry x="-23" y="-104" width="110" height="50" as="geometry" />
        </mxCell>
        <mxCell id="F6zSeRQlWIKn3YhWenbm-47" value=":рецепты" style="html=1;whiteSpace=wrap;" vertex="1" parent="1">
          <mxGeometry x="-20" y="44" width="110" height="50" as="geometry" />
        </mxCell>
        <mxCell id="F6zSeRQlWIKn3YhWenbm-48" value="" style="endArrow=open;endFill=1;endSize=12;html=1;rounded=0;" edge="1" parent="1">
          <mxGeometry width="160" relative="1" as="geometry">
            <mxPoint x="-183" y="-79.53" as="sourcePoint" />
            <mxPoint x="-23" y="-79.53" as="targetPoint" />
          </mxGeometry>
        </mxCell>
        <mxCell id="F6zSeRQlWIKn3YhWenbm-50" value="пользователь" style="shape=umlActor;verticalLabelPosition=bottom;verticalAlign=top;html=1;" vertex="1" parent="1">
          <mxGeometry x="-212" y="-114" width="30" height="60" as="geometry" />
        </mxCell>
        <mxCell id="F6zSeRQlWIKn3YhWenbm-51" value="" style="endArrow=open;endFill=1;endSize=12;html=1;rounded=0;exitX=0.107;exitY=0.982;exitDx=0;exitDy=0;exitPerimeter=0;" edge="1" parent="1">
          <mxGeometry width="160" relative="1" as="geometry">
            <mxPoint x="-2.842170943040401e-14" y="-53.90000000000009" as="sourcePoint" />
            <mxPoint x="0.22999999999998977" y="44" as="targetPoint" />
          </mxGeometry>
        </mxCell>
        <mxCell id="F6zSeRQlWIKn3YhWenbm-52" value="1. обращение к фильтрам" style="text;html=1;align=center;verticalAlign=middle;resizable=0;points=[];autosize=1;strokeColor=none;fillColor=none;" vertex="1" parent="1">
          <mxGeometry x="-188" y="-105" width="163" height="26" as="geometry" />
        </mxCell>
        <mxCell id="F6zSeRQlWIKn3YhWenbm-54" value="2. фильтрация&lt;div&gt;рецептов&lt;/div&gt;" style="text;html=1;align=center;verticalAlign=middle;resizable=0;points=[];autosize=1;strokeColor=none;fillColor=none;" vertex="1" parent="1">
          <mxGeometry x="-94" y="-26" width="99" height="41" as="geometry" />
        </mxCell>
        <mxCell id="F6zSeRQlWIKn3YhWenbm-55" value="" style="endArrow=open;endFill=1;endSize=12;html=1;rounded=0;exitX=0.787;exitY=-0.005;exitDx=0;exitDy=0;exitPerimeter=0;" edge="1" parent="1" source="F6zSeRQlWIKn3YhWenbm-47">
          <mxGeometry width="160" relative="1" as="geometry">
            <mxPoint x="65" y="41" as="sourcePoint" />
            <mxPoint x="67.23000000000002" y="-53.999999999999915" as="targetPoint" />
          </mxGeometry>
        </mxCell>
        <mxCell id="F6zSeRQlWIKn3YhWenbm-56" value="3. возврат&amp;nbsp;&lt;div&gt;отфильтрованных&lt;div&gt;рецептов&lt;/div&gt;&lt;/div&gt;" style="text;html=1;align=center;verticalAlign=middle;resizable=0;points=[];autosize=1;strokeColor=none;fillColor=none;" vertex="1" parent="1">
          <mxGeometry x="64" y="-26" width="118" height="55" as="geometry" />
        </mxCell>
        <mxCell id="F6zSeRQlWIKn3YhWenbm-57" value=":браузер&lt;div&gt;(страница)&lt;/div&gt;" style="html=1;whiteSpace=wrap;" vertex="1" parent="1">
          <mxGeometry x="-20" y="-261" width="110" height="50" as="geometry" />
        </mxCell>
        <mxCell id="F6zSeRQlWIKn3YhWenbm-58" value="" style="endArrow=open;endFill=1;endSize=12;html=1;rounded=0;exitX=0.787;exitY=-0.005;exitDx=0;exitDy=0;exitPerimeter=0;entryX=0.5;entryY=1;entryDx=0;entryDy=0;" edge="1" parent="1" target="F6zSeRQlWIKn3YhWenbm-57">
          <mxGeometry width="160" relative="1" as="geometry">
            <mxPoint x="34.51999999999998" y="-105.00000000000009" as="sourcePoint" />
            <mxPoint x="34.75" y="-203" as="targetPoint" />
          </mxGeometry>
        </mxCell>
        <mxCell id="F6zSeRQlWIKn3YhWenbm-59" value="4. передача&lt;div&gt;отфильтрованных&lt;/div&gt;&lt;div&gt;рецептов&lt;/div&gt;" style="text;html=1;align=center;verticalAlign=middle;resizable=0;points=[];autosize=1;strokeColor=none;fillColor=none;" vertex="1" parent="1">
          <mxGeometry x="32" y="-187" width="118" height="55" as="geometry" />
        </mxCell>
        <mxCell id="F6zSeRQlWIKn3YhWenbm-60" value="" style="endArrow=open;endFill=1;endSize=12;html=1;rounded=0;exitX=0;exitY=0.5;exitDx=0;exitDy=0;" edge="1" parent="1" source="F6zSeRQlWIKn3YhWenbm-57">
          <mxGeometry width="160" relative="1" as="geometry">
            <mxPoint x="-112" y="-128.00000000000009" as="sourcePoint" />
            <mxPoint x="-180" y="-118" as="targetPoint" />
          </mxGeometry>
        </mxCell>
        <mxCell id="F6zSeRQlWIKn3YhWenbm-61" value="5. вывод на страницу&lt;div&gt;отфильтрованных&lt;/div&gt;&lt;div&gt;рецептов&lt;/div&gt;" style="text;html=1;align=center;verticalAlign=middle;resizable=0;points=[];autosize=1;strokeColor=none;fillColor=none;" vertex="1" parent="1">
          <mxGeometry x="-194" y="-239" width="137" height="55" as="geometry" />
        </mxCell>
        <mxCell id="F6zSeRQlWIKn3YhWenbm-63" value="БАЗА ДАННЫХ&lt;div&gt;&lt;br&gt;&lt;/div&gt;&lt;div&gt;ХРАНИМЫЕ ДАННЫЕ&lt;/div&gt;" style="verticalAlign=top;align=left;spacingTop=8;spacingLeft=2;spacingRight=12;shape=cube;size=10;direction=south;fontStyle=4;html=1;whiteSpace=wrap;" vertex="1" parent="1">
          <mxGeometry x="638" y="45.5" width="180" height="120" as="geometry" />
        </mxCell>
        <mxCell id="F6zSeRQlWIKn3YhWenbm-64" value="КЛИЕНТ (FRONTEND)&lt;div&gt;&lt;br&gt;&lt;/div&gt;&lt;div&gt;ВИЗУАЛЬНОЕ ОТОБРАЖЕНИЕ&lt;/div&gt;" style="verticalAlign=top;align=left;spacingTop=8;spacingLeft=2;spacingRight=12;shape=cube;size=10;direction=south;fontStyle=4;html=1;whiteSpace=wrap;" vertex="1" parent="1">
          <mxGeometry x="638" y="-274.5" width="180" height="120" as="geometry" />
        </mxCell>
        <mxCell id="F6zSeRQlWIKn3YhWenbm-65" value="WEB API (BACKEND)&lt;div&gt;&lt;br&gt;&lt;/div&gt;&lt;div&gt;БИЗНЕС-ЛОГИКА САЙТА&lt;/div&gt;" style="verticalAlign=top;align=left;spacingTop=8;spacingLeft=2;spacingRight=12;shape=cube;size=10;direction=south;fontStyle=4;html=1;whiteSpace=wrap;" vertex="1" parent="1">
          <mxGeometry x="426" y="-115.5" width="180" height="120" as="geometry" />
        </mxCell>
        <mxCell id="F6zSeRQlWIKn3YhWenbm-69" value="" style="endArrow=none;startArrow=none;endFill=1;startFill=0;html=1;rounded=0;entryX=1;entryY=1;entryDx=0;entryDy=0;entryPerimeter=0;exitX=0;exitY=0;exitDx=0;exitDy=0;exitPerimeter=0;" edge="1" parent="1" source="F6zSeRQlWIKn3YhWenbm-65" target="F6zSeRQlWIKn3YhWenbm-64">
          <mxGeometry width="160" relative="1" as="geometry">
            <mxPoint x="393" y="-150.5" as="sourcePoint" />
            <mxPoint x="553" y="-150.5" as="targetPoint" />
          </mxGeometry>
        </mxCell>
        <mxCell id="F6zSeRQlWIKn3YhWenbm-70" value="" style="endArrow=none;startArrow=none;endFill=1;startFill=0;html=1;rounded=0;entryX=0;entryY=0;entryDx=119.99999999999999;entryDy=10;entryPerimeter=0;exitX=0;exitY=0;exitDx=10;exitDy=180;exitPerimeter=0;" edge="1" parent="1" source="F6zSeRQlWIKn3YhWenbm-63" target="F6zSeRQlWIKn3YhWenbm-65">
          <mxGeometry width="160" relative="1" as="geometry">
            <mxPoint x="768" y="13.5" as="sourcePoint" />
            <mxPoint x="843" y="-61.5" as="targetPoint" />
          </mxGeometry>
        </mxCell>
        <mxCell id="F6zSeRQlWIKn3YhWenbm-71" value="диаграмма&amp;nbsp;&lt;div&gt;развертывания&lt;/div&gt;" style="text;html=1;align=center;verticalAlign=middle;resizable=0;points=[];autosize=1;strokeColor=none;fillColor=none;" vertex="1" parent="1">
          <mxGeometry x="469" y="-242" width="103" height="41" as="geometry" />
        </mxCell>
        <mxCell id="F6zSeRQlWIKn3YhWenbm-73" value="&lt;p style=&quot;margin:0px;margin-top:4px;text-align:center;&quot;&gt;&lt;b&gt;пользовательский интерфейс&lt;/b&gt;&lt;/p&gt;" style="verticalAlign=top;align=left;overflow=fill;html=1;whiteSpace=wrap;" vertex="1" parent="1">
          <mxGeometry x="1032" y="-269" width="274" height="163" as="geometry" />
        </mxCell>
        <mxCell id="F6zSeRQlWIKn3YhWenbm-74" value="просмотр профиля" style="shape=module;align=left;spacingLeft=20;align=center;verticalAlign=top;whiteSpace=wrap;html=1;" vertex="1" parent="1">
          <mxGeometry x="1044" y="-234" width="100" height="50" as="geometry" />
        </mxCell>
        <mxCell id="F6zSeRQlWIKn3YhWenbm-75" value="просмотр рецептов" style="shape=module;align=left;spacingLeft=20;align=center;verticalAlign=top;whiteSpace=wrap;html=1;" vertex="1" parent="1">
          <mxGeometry x="1184" y="-234" width="100" height="50" as="geometry" />
        </mxCell>
        <mxCell id="F6zSeRQlWIKn3YhWenbm-76" value="поиск и фильтрация" style="shape=module;align=left;spacingLeft=20;align=center;verticalAlign=top;whiteSpace=wrap;html=1;" vertex="1" parent="1">
          <mxGeometry x="1114" y="-165" width="100" height="50" as="geometry" />
        </mxCell>
        <mxCell id="F6zSeRQlWIKn3YhWenbm-77" value="&lt;p style=&quot;margin:0px;margin-top:4px;text-align:center;&quot;&gt;&lt;b&gt;база данных&lt;/b&gt;&lt;/p&gt;" style="verticalAlign=top;align=left;overflow=fill;html=1;whiteSpace=wrap;" vertex="1" parent="1">
          <mxGeometry x="1401" y="-269" width="307" height="171" as="geometry" />
        </mxCell>
        <mxCell id="F6zSeRQlWIKn3YhWenbm-78" value="модель рецептов" style="shape=module;align=left;spacingLeft=20;align=center;verticalAlign=top;whiteSpace=wrap;html=1;" vertex="1" parent="1">
          <mxGeometry x="1590" y="-226" width="100" height="50" as="geometry" />
        </mxCell>
        <mxCell id="F6zSeRQlWIKn3YhWenbm-79" value="модели фильтров" style="shape=module;align=left;spacingLeft=20;align=center;verticalAlign=top;whiteSpace=wrap;html=1;" vertex="1" parent="1">
          <mxGeometry x="1414" y="-231" width="100" height="50" as="geometry" />
        </mxCell>
        <mxCell id="F6zSeRQlWIKn3YhWenbm-80" value="модели пользователей" style="shape=module;align=left;spacingLeft=20;align=center;verticalAlign=top;whiteSpace=wrap;html=1;" vertex="1" parent="1">
          <mxGeometry x="1504.5" y="-153" width="100" height="50" as="geometry" />
        </mxCell>
        <mxCell id="F6zSeRQlWIKn3YhWenbm-81" value="&lt;p style=&quot;margin:0px;margin-top:4px;text-align:center;&quot;&gt;&lt;b&gt;бизнес-логика&lt;/b&gt;&lt;b style=&quot;background-color: transparent; color: light-dark(rgb(0, 0, 0), rgb(255, 255, 255));&quot;&gt;&amp;nbsp;&lt;/b&gt;&lt;/p&gt;" style="verticalAlign=top;align=left;overflow=fill;html=1;whiteSpace=wrap;" vertex="1" parent="1">
          <mxGeometry x="1223" y="12" width="338" height="146" as="geometry" />
        </mxCell>
        <mxCell id="F6zSeRQlWIKn3YhWenbm-82" value="управление пользователями" style="shape=module;align=left;spacingLeft=20;align=center;verticalAlign=top;whiteSpace=wrap;html=1;" vertex="1" parent="1">
          <mxGeometry x="1405" y="69" width="124" height="59" as="geometry" />
        </mxCell>
        <mxCell id="F6zSeRQlWIKn3YhWenbm-83" value="управление рецептами" style="shape=module;align=left;spacingLeft=20;align=center;verticalAlign=top;whiteSpace=wrap;html=1;" vertex="1" parent="1">
          <mxGeometry x="1247" y="66" width="124" height="59" as="geometry" />
        </mxCell>
        <mxCell id="F6zSeRQlWIKn3YhWenbm-85" value="" style="rounded=0;orthogonalLoop=1;jettySize=auto;html=1;endArrow=halfCircle;endFill=0;endSize=6;strokeWidth=1;sketch=0;exitX=0.859;exitY=1.004;exitDx=0;exitDy=0;exitPerimeter=0;" edge="1" target="F6zSeRQlWIKn3YhWenbm-87" parent="1" source="F6zSeRQlWIKn3YhWenbm-73">
          <mxGeometry relative="1" as="geometry">
            <mxPoint x="1379" y="-12" as="sourcePoint" />
          </mxGeometry>
        </mxCell>
        <mxCell id="F6zSeRQlWIKn3YhWenbm-86" value="" style="rounded=0;orthogonalLoop=1;jettySize=auto;html=1;endArrow=oval;endFill=0;sketch=0;sourcePerimeterSpacing=0;targetPerimeterSpacing=0;endSize=10;exitX=0.541;exitY=0.01;exitDx=0;exitDy=0;exitPerimeter=0;" edge="1" target="F6zSeRQlWIKn3YhWenbm-87" parent="1" source="F6zSeRQlWIKn3YhWenbm-81">
          <mxGeometry relative="1" as="geometry">
            <mxPoint x="1288" y="-74" as="sourcePoint" />
          </mxGeometry>
        </mxCell>
        <mxCell id="F6zSeRQlWIKn3YhWenbm-87" value="" style="ellipse;whiteSpace=wrap;html=1;align=center;aspect=fixed;fillColor=none;strokeColor=none;resizable=0;perimeter=centerPerimeter;rotatable=0;allowArrows=0;points=[];outlineConnect=1;" vertex="1" parent="1">
          <mxGeometry x="1335" y="-57" width="10" height="10" as="geometry" />
        </mxCell>
        <mxCell id="F6zSeRQlWIKn3YhWenbm-88" value="данные для отрисовки&lt;div&gt;на странице&amp;nbsp;&lt;/div&gt;" style="text;html=1;align=center;verticalAlign=middle;resizable=0;points=[];autosize=1;strokeColor=none;fillColor=none;" vertex="1" parent="1">
          <mxGeometry x="1237" y="-31" width="144" height="41" as="geometry" />
        </mxCell>
        <mxCell id="F6zSeRQlWIKn3YhWenbm-89" value="" style="rounded=0;orthogonalLoop=1;jettySize=auto;html=1;endArrow=halfCircle;endFill=0;endSize=6;strokeWidth=1;sketch=0;exitX=0.865;exitY=-0.004;exitDx=0;exitDy=0;exitPerimeter=0;" edge="1" target="F6zSeRQlWIKn3YhWenbm-91" parent="1" source="F6zSeRQlWIKn3YhWenbm-81">
          <mxGeometry relative="1" as="geometry">
            <mxPoint x="1978" y="25" as="sourcePoint" />
          </mxGeometry>
        </mxCell>
        <mxCell id="F6zSeRQlWIKn3YhWenbm-90" value="" style="rounded=0;orthogonalLoop=1;jettySize=auto;html=1;endArrow=oval;endFill=0;sketch=0;sourcePerimeterSpacing=0;targetPerimeterSpacing=0;endSize=10;exitX=0.537;exitY=1;exitDx=0;exitDy=0;exitPerimeter=0;" edge="1" target="F6zSeRQlWIKn3YhWenbm-91" parent="1" source="F6zSeRQlWIKn3YhWenbm-77">
          <mxGeometry relative="1" as="geometry">
            <mxPoint x="1938" y="25" as="sourcePoint" />
          </mxGeometry>
        </mxCell>
        <mxCell id="F6zSeRQlWIKn3YhWenbm-91" value="" style="ellipse;whiteSpace=wrap;html=1;align=center;aspect=fixed;fillColor=none;strokeColor=none;resizable=0;perimeter=centerPerimeter;rotatable=0;allowArrows=0;points=[];outlineConnect=1;" vertex="1" parent="1">
          <mxGeometry x="1529" y="-41" width="10" height="10" as="geometry" />
        </mxCell>
        <mxCell id="F6zSeRQlWIKn3YhWenbm-92" value="данные из БД" style="text;html=1;align=center;verticalAlign=middle;resizable=0;points=[];autosize=1;strokeColor=none;fillColor=none;" vertex="1" parent="1">
          <mxGeometry x="1550" y="-83" width="95" height="26" as="geometry" />
        </mxCell>
        <mxCell id="F6zSeRQlWIKn3YhWenbm-93" value="диаграмма&lt;div&gt;компонентов&lt;/div&gt;" style="text;html=1;align=center;verticalAlign=middle;resizable=0;points=[];autosize=1;strokeColor=none;fillColor=none;" vertex="1" parent="1">
          <mxGeometry x="1086" y="-342" width="90" height="41" as="geometry" />
        </mxCell>
        <mxCell id="F6zSeRQlWIKn3YhWenbm-95" value="авторизованный&lt;div&gt;пользователь&lt;/div&gt;" style="shape=umlActor;verticalLabelPosition=bottom;verticalAlign=top;html=1;" vertex="1" parent="1">
          <mxGeometry x="-1636" y="501" width="30" height="60" as="geometry" />
        </mxCell>
        <mxCell id="F6zSeRQlWIKn3YhWenbm-96" value="неавторизованный&lt;div&gt;пользователь&lt;/div&gt;" style="shape=umlActor;verticalLabelPosition=bottom;verticalAlign=top;html=1;" vertex="1" parent="1">
          <mxGeometry x="-1636" y="701" width="30" height="60" as="geometry" />
        </mxCell>
        <mxCell id="F6zSeRQlWIKn3YhWenbm-98" value="&lt;p style=&quot;margin:0px;margin-top:4px;text-align:center;&quot;&gt;&lt;b&gt;страница просмотра рецептов&lt;/b&gt;&lt;/p&gt;" style="verticalAlign=top;align=left;overflow=fill;html=1;whiteSpace=wrap;" vertex="1" parent="1">
          <mxGeometry x="-1501" y="415" width="394" height="427" as="geometry" />
        </mxCell>
        <mxCell id="F6zSeRQlWIKn3YhWenbm-99" value="просмотр карточек рецептов" style="ellipse;whiteSpace=wrap;html=1;" vertex="1" parent="1">
          <mxGeometry x="-1266" y="512" width="140" height="70" as="geometry" />
        </mxCell>
        <mxCell id="F6zSeRQlWIKn3YhWenbm-100" value="использование фильтров" style="ellipse;whiteSpace=wrap;html=1;" vertex="1" parent="1">
          <mxGeometry x="-1373" y="669" width="140" height="70" as="geometry" />
        </mxCell>
        <mxCell id="F6zSeRQlWIKn3YhWenbm-101" value="вход в профиль" style="ellipse;whiteSpace=wrap;html=1;" vertex="1" parent="1">
          <mxGeometry x="-1277" y="755" width="140" height="70" as="geometry" />
        </mxCell>
        <mxCell id="F6zSeRQlWIKn3YhWenbm-102" value="просмотр профиля" style="ellipse;whiteSpace=wrap;html=1;" vertex="1" parent="1">
          <mxGeometry x="-1471" y="460" width="140" height="70" as="geometry" />
        </mxCell>
        <mxCell id="F6zSeRQlWIKn3YhWenbm-103" value="использование поиска&lt;div&gt;на странице&lt;/div&gt;" style="ellipse;whiteSpace=wrap;html=1;" vertex="1" parent="1">
          <mxGeometry x="-1264" y="606" width="140" height="70" as="geometry" />
        </mxCell>
        <mxCell id="F6zSeRQlWIKn3YhWenbm-105" value="" style="endArrow=none;startArrow=none;endFill=1;startFill=0;html=1;rounded=0;entryX=0;entryY=0.5;entryDx=0;entryDy=0;" edge="1" parent="1" source="F6zSeRQlWIKn3YhWenbm-96" target="F6zSeRQlWIKn3YhWenbm-101">
          <mxGeometry width="160" relative="1" as="geometry">
            <mxPoint x="-1602" y="734" as="sourcePoint" />
            <mxPoint x="-1682" y="672" as="targetPoint" />
          </mxGeometry>
        </mxCell>
        <mxCell id="F6zSeRQlWIKn3YhWenbm-106" value="" style="endArrow=none;startArrow=none;endFill=1;startFill=0;html=1;rounded=0;exitX=0;exitY=0.5;exitDx=0;exitDy=0;" edge="1" parent="1" source="F6zSeRQlWIKn3YhWenbm-100" target="F6zSeRQlWIKn3YhWenbm-96">
          <mxGeometry width="160" relative="1" as="geometry">
            <mxPoint x="-1513" y="755" as="sourcePoint" />
            <mxPoint x="-1603" y="728" as="targetPoint" />
          </mxGeometry>
        </mxCell>
        <mxCell id="F6zSeRQlWIKn3YhWenbm-107" value="" style="endArrow=none;startArrow=none;endFill=1;startFill=0;html=1;rounded=0;exitX=0;exitY=0.5;exitDx=0;exitDy=0;" edge="1" parent="1" source="F6zSeRQlWIKn3YhWenbm-103" target="F6zSeRQlWIKn3YhWenbm-96">
          <mxGeometry width="160" relative="1" as="geometry">
            <mxPoint x="-1529" y="740" as="sourcePoint" />
            <mxPoint x="-1600" y="718" as="targetPoint" />
          </mxGeometry>
        </mxCell>
        <mxCell id="F6zSeRQlWIKn3YhWenbm-108" value="" style="endArrow=none;startArrow=none;endFill=1;startFill=0;html=1;rounded=0;exitX=0.014;exitY=0.614;exitDx=0;exitDy=0;exitPerimeter=0;" edge="1" parent="1" source="F6zSeRQlWIKn3YhWenbm-99" target="F6zSeRQlWIKn3YhWenbm-96">
          <mxGeometry width="160" relative="1" as="geometry">
            <mxPoint x="-1544" y="791" as="sourcePoint" />
            <mxPoint x="-1604" y="710" as="targetPoint" />
          </mxGeometry>
        </mxCell>
        <mxCell id="F6zSeRQlWIKn3YhWenbm-109" value="" style="endArrow=none;startArrow=none;endFill=1;startFill=0;html=1;rounded=0;exitX=0;exitY=0.5;exitDx=0;exitDy=0;" edge="1" parent="1" source="F6zSeRQlWIKn3YhWenbm-102" target="F6zSeRQlWIKn3YhWenbm-95">
          <mxGeometry width="160" relative="1" as="geometry">
            <mxPoint x="-1537" y="702" as="sourcePoint" />
            <mxPoint x="-1587" y="541" as="targetPoint" />
          </mxGeometry>
        </mxCell>
        <mxCell id="F6zSeRQlWIKn3YhWenbm-110" value="" style="endArrow=none;startArrow=none;endFill=1;startFill=0;html=1;rounded=0;" edge="1" parent="1" source="F6zSeRQlWIKn3YhWenbm-99" target="F6zSeRQlWIKn3YhWenbm-95">
          <mxGeometry width="160" relative="1" as="geometry">
            <mxPoint x="-1556" y="589" as="sourcePoint" />
            <mxPoint x="-1598" y="538" as="targetPoint" />
          </mxGeometry>
        </mxCell>
        <mxCell id="F6zSeRQlWIKn3YhWenbm-111" value="" style="endArrow=none;startArrow=none;endFill=1;startFill=0;html=1;rounded=0;" edge="1" parent="1" source="F6zSeRQlWIKn3YhWenbm-103" target="F6zSeRQlWIKn3YhWenbm-95">
          <mxGeometry width="160" relative="1" as="geometry">
            <mxPoint x="-1489" y="643" as="sourcePoint" />
            <mxPoint x="-1531" y="592" as="targetPoint" />
          </mxGeometry>
        </mxCell>
        <mxCell id="F6zSeRQlWIKn3YhWenbm-112" value="" style="endArrow=none;startArrow=none;endFill=1;startFill=0;html=1;rounded=0;" edge="1" parent="1" source="F6zSeRQlWIKn3YhWenbm-100" target="F6zSeRQlWIKn3YhWenbm-95">
          <mxGeometry width="160" relative="1" as="geometry">
            <mxPoint x="-1498" y="620" as="sourcePoint" />
            <mxPoint x="-1540" y="569" as="targetPoint" />
          </mxGeometry>
        </mxCell>
        <mxCell id="F6zSeRQlWIKn3YhWenbm-113" value="диаграмма вариантов использования" style="text;html=1;align=center;verticalAlign=middle;resizable=0;points=[];autosize=1;strokeColor=none;fillColor=none;" vertex="1" parent="1">
          <mxGeometry x="-1628" y="369" width="228" height="26" as="geometry" />
        </mxCell>
        <mxCell id="F6zSeRQlWIKn3YhWenbm-123" value="карточка рецепта" style="swimlane;fontStyle=1;align=center;verticalAlign=top;childLayout=stackLayout;horizontal=1;startSize=26;horizontalStack=0;resizeParent=1;resizeParentMax=0;resizeLast=0;collapsible=1;marginBottom=0;whiteSpace=wrap;html=1;" vertex="1" parent="1">
          <mxGeometry x="-125" y="451" width="160" height="138" as="geometry" />
        </mxCell>
        <mxCell id="F6zSeRQlWIKn3YhWenbm-124" value="фото рецепта" style="text;strokeColor=none;fillColor=none;align=left;verticalAlign=top;spacingLeft=4;spacingRight=4;overflow=hidden;rotatable=0;points=[[0,0.5],[1,0.5]];portConstraint=eastwest;whiteSpace=wrap;html=1;" vertex="1" parent="F6zSeRQlWIKn3YhWenbm-123">
          <mxGeometry y="26" width="160" height="26" as="geometry" />
        </mxCell>
        <mxCell id="F6zSeRQlWIKn3YhWenbm-127" value="название рецепта" style="text;strokeColor=none;fillColor=none;align=left;verticalAlign=top;spacingLeft=4;spacingRight=4;overflow=hidden;rotatable=0;points=[[0,0.5],[1,0.5]];portConstraint=eastwest;whiteSpace=wrap;html=1;" vertex="1" parent="F6zSeRQlWIKn3YhWenbm-123">
          <mxGeometry y="52" width="160" height="26" as="geometry" />
        </mxCell>
        <mxCell id="F6zSeRQlWIKn3YhWenbm-128" value="время приготовление" style="text;strokeColor=none;fillColor=none;align=left;verticalAlign=top;spacingLeft=4;spacingRight=4;overflow=hidden;rotatable=0;points=[[0,0.5],[1,0.5]];portConstraint=eastwest;whiteSpace=wrap;html=1;" vertex="1" parent="F6zSeRQlWIKn3YhWenbm-123">
          <mxGeometry y="78" width="160" height="26" as="geometry" />
        </mxCell>
        <mxCell id="F6zSeRQlWIKn3YhWenbm-125" value="" style="line;strokeWidth=1;fillColor=none;align=left;verticalAlign=middle;spacingTop=-1;spacingLeft=3;spacingRight=3;rotatable=0;labelPosition=right;points=[];portConstraint=eastwest;strokeColor=inherit;" vertex="1" parent="F6zSeRQlWIKn3YhWenbm-123">
          <mxGeometry y="104" width="160" height="8" as="geometry" />
        </mxCell>
        <mxCell id="F6zSeRQlWIKn3YhWenbm-126" value="открытьКарточку()" style="text;strokeColor=none;fillColor=none;align=left;verticalAlign=top;spacingLeft=4;spacingRight=4;overflow=hidden;rotatable=0;points=[[0,0.5],[1,0.5]];portConstraint=eastwest;whiteSpace=wrap;html=1;" vertex="1" parent="F6zSeRQlWIKn3YhWenbm-123">
          <mxGeometry y="112" width="160" height="26" as="geometry" />
        </mxCell>
        <mxCell id="F6zSeRQlWIKn3YhWenbm-129" value="фильтры" style="swimlane;fontStyle=1;align=center;verticalAlign=top;childLayout=stackLayout;horizontal=1;startSize=26;horizontalStack=0;resizeParent=1;resizeParentMax=0;resizeLast=0;collapsible=1;marginBottom=0;whiteSpace=wrap;html=1;" vertex="1" parent="1">
          <mxGeometry x="-19" y="706" width="160" height="86" as="geometry" />
        </mxCell>
        <mxCell id="F6zSeRQlWIKn3YhWenbm-166" value="наименование фильтра" style="text;strokeColor=none;fillColor=none;align=left;verticalAlign=top;spacingLeft=4;spacingRight=4;overflow=hidden;rotatable=0;points=[[0,0.5],[1,0.5]];portConstraint=eastwest;whiteSpace=wrap;html=1;" vertex="1" parent="F6zSeRQlWIKn3YhWenbm-129">
          <mxGeometry y="26" width="160" height="26" as="geometry" />
        </mxCell>
        <mxCell id="F6zSeRQlWIKn3YhWenbm-131" value="" style="line;strokeWidth=1;fillColor=none;align=left;verticalAlign=middle;spacingTop=-1;spacingLeft=3;spacingRight=3;rotatable=0;labelPosition=right;points=[];portConstraint=eastwest;strokeColor=inherit;" vertex="1" parent="F6zSeRQlWIKn3YhWenbm-129">
          <mxGeometry y="52" width="160" height="8" as="geometry" />
        </mxCell>
        <mxCell id="F6zSeRQlWIKn3YhWenbm-167" value="применитьФильтр()" style="text;strokeColor=none;fillColor=none;align=left;verticalAlign=top;spacingLeft=4;spacingRight=4;overflow=hidden;rotatable=0;points=[[0,0.5],[1,0.5]];portConstraint=eastwest;whiteSpace=wrap;html=1;" vertex="1" parent="F6zSeRQlWIKn3YhWenbm-129">
          <mxGeometry y="60" width="160" height="26" as="geometry" />
        </mxCell>
        <mxCell id="F6zSeRQlWIKn3YhWenbm-134" value="тип блюда" style="swimlane;fontStyle=1;align=center;verticalAlign=top;childLayout=stackLayout;horizontal=1;startSize=26;horizontalStack=0;resizeParent=1;resizeParentMax=0;resizeLast=0;collapsible=1;marginBottom=0;whiteSpace=wrap;html=1;" vertex="1" parent="1">
          <mxGeometry x="394" y="898" width="160" height="69" as="geometry" />
        </mxCell>
        <mxCell id="F6zSeRQlWIKn3YhWenbm-172" value="наименование типа блюда" style="text;strokeColor=none;fillColor=none;align=left;verticalAlign=top;spacingLeft=4;spacingRight=4;overflow=hidden;rotatable=0;points=[[0,0.5],[1,0.5]];portConstraint=eastwest;whiteSpace=wrap;html=1;" vertex="1" parent="F6zSeRQlWIKn3YhWenbm-134">
          <mxGeometry y="26" width="160" height="35" as="geometry" />
        </mxCell>
        <mxCell id="F6zSeRQlWIKn3YhWenbm-135" value="" style="line;strokeWidth=1;fillColor=none;align=left;verticalAlign=middle;spacingTop=-1;spacingLeft=3;spacingRight=3;rotatable=0;labelPosition=right;points=[];portConstraint=eastwest;strokeColor=inherit;" vertex="1" parent="F6zSeRQlWIKn3YhWenbm-134">
          <mxGeometry y="61" width="160" height="8" as="geometry" />
        </mxCell>
        <mxCell id="F6zSeRQlWIKn3YhWenbm-136" value="включить ингредиенты&amp;nbsp;" style="swimlane;fontStyle=1;align=center;verticalAlign=top;childLayout=stackLayout;horizontal=1;startSize=26;horizontalStack=0;resizeParent=1;resizeParentMax=0;resizeLast=0;collapsible=1;marginBottom=0;whiteSpace=wrap;html=1;" vertex="1" parent="1">
          <mxGeometry x="-421" y="898" width="160" height="69" as="geometry" />
        </mxCell>
        <mxCell id="F6zSeRQlWIKn3YhWenbm-168" value="наименование ингредиента" style="text;strokeColor=none;fillColor=none;align=left;verticalAlign=top;spacingLeft=4;spacingRight=4;overflow=hidden;rotatable=0;points=[[0,0.5],[1,0.5]];portConstraint=eastwest;whiteSpace=wrap;html=1;" vertex="1" parent="F6zSeRQlWIKn3YhWenbm-136">
          <mxGeometry y="26" width="160" height="35" as="geometry" />
        </mxCell>
        <mxCell id="F6zSeRQlWIKn3YhWenbm-137" value="" style="line;strokeWidth=1;fillColor=none;align=left;verticalAlign=middle;spacingTop=-1;spacingLeft=3;spacingRight=3;rotatable=0;labelPosition=right;points=[];portConstraint=eastwest;strokeColor=inherit;" vertex="1" parent="F6zSeRQlWIKn3YhWenbm-136">
          <mxGeometry y="61" width="160" height="8" as="geometry" />
        </mxCell>
        <mxCell id="F6zSeRQlWIKn3YhWenbm-138" value="тип меню" style="swimlane;fontStyle=1;align=center;verticalAlign=top;childLayout=stackLayout;horizontal=1;startSize=26;horizontalStack=0;resizeParent=1;resizeParentMax=0;resizeLast=0;collapsible=1;marginBottom=0;whiteSpace=wrap;html=1;" vertex="1" parent="1">
          <mxGeometry x="-19" y="898" width="160" height="69" as="geometry" />
        </mxCell>
        <mxCell id="F6zSeRQlWIKn3YhWenbm-170" value="наименование типа меню" style="text;strokeColor=none;fillColor=none;align=left;verticalAlign=top;spacingLeft=4;spacingRight=4;overflow=hidden;rotatable=0;points=[[0,0.5],[1,0.5]];portConstraint=eastwest;whiteSpace=wrap;html=1;" vertex="1" parent="F6zSeRQlWIKn3YhWenbm-138">
          <mxGeometry y="26" width="160" height="35" as="geometry" />
        </mxCell>
        <mxCell id="F6zSeRQlWIKn3YhWenbm-139" value="" style="line;strokeWidth=1;fillColor=none;align=left;verticalAlign=middle;spacingTop=-1;spacingLeft=3;spacingRight=3;rotatable=0;labelPosition=right;points=[];portConstraint=eastwest;strokeColor=inherit;" vertex="1" parent="F6zSeRQlWIKn3YhWenbm-138">
          <mxGeometry y="61" width="160" height="8" as="geometry" />
        </mxCell>
        <mxCell id="F6zSeRQlWIKn3YhWenbm-140" value="кухня" style="swimlane;fontStyle=1;align=center;verticalAlign=top;childLayout=stackLayout;horizontal=1;startSize=26;horizontalStack=0;resizeParent=1;resizeParentMax=0;resizeLast=0;collapsible=1;marginBottom=0;whiteSpace=wrap;html=1;" vertex="1" parent="1">
          <mxGeometry x="196" y="898" width="160" height="69" as="geometry" />
        </mxCell>
        <mxCell id="F6zSeRQlWIKn3YhWenbm-171" value="наименование кухни" style="text;strokeColor=none;fillColor=none;align=left;verticalAlign=top;spacingLeft=4;spacingRight=4;overflow=hidden;rotatable=0;points=[[0,0.5],[1,0.5]];portConstraint=eastwest;whiteSpace=wrap;html=1;" vertex="1" parent="F6zSeRQlWIKn3YhWenbm-140">
          <mxGeometry y="26" width="160" height="35" as="geometry" />
        </mxCell>
        <mxCell id="F6zSeRQlWIKn3YhWenbm-141" value="" style="line;strokeWidth=1;fillColor=none;align=left;verticalAlign=middle;spacingTop=-1;spacingLeft=3;spacingRight=3;rotatable=0;labelPosition=right;points=[];portConstraint=eastwest;strokeColor=inherit;" vertex="1" parent="F6zSeRQlWIKn3YhWenbm-140">
          <mxGeometry y="61" width="160" height="8" as="geometry" />
        </mxCell>
        <mxCell id="F6zSeRQlWIKn3YhWenbm-142" value="исключить ингредиенты&amp;nbsp;" style="swimlane;fontStyle=1;align=center;verticalAlign=top;childLayout=stackLayout;horizontal=1;startSize=26;horizontalStack=0;resizeParent=1;resizeParentMax=0;resizeLast=0;collapsible=1;marginBottom=0;whiteSpace=wrap;html=1;" vertex="1" parent="1">
          <mxGeometry x="-215" y="898" width="160" height="69" as="geometry" />
        </mxCell>
        <mxCell id="F6zSeRQlWIKn3YhWenbm-169" value="наименование ингредиента" style="text;strokeColor=none;fillColor=none;align=left;verticalAlign=top;spacingLeft=4;spacingRight=4;overflow=hidden;rotatable=0;points=[[0,0.5],[1,0.5]];portConstraint=eastwest;whiteSpace=wrap;html=1;" vertex="1" parent="F6zSeRQlWIKn3YhWenbm-142">
          <mxGeometry y="26" width="160" height="35" as="geometry" />
        </mxCell>
        <mxCell id="F6zSeRQlWIKn3YhWenbm-143" value="" style="line;strokeWidth=1;fillColor=none;align=left;verticalAlign=middle;spacingTop=-1;spacingLeft=3;spacingRight=3;rotatable=0;labelPosition=right;points=[];portConstraint=eastwest;strokeColor=inherit;" vertex="1" parent="F6zSeRQlWIKn3YhWenbm-142">
          <mxGeometry y="61" width="160" height="8" as="geometry" />
        </mxCell>
        <mxCell id="F6zSeRQlWIKn3YhWenbm-144" value="" style="endArrow=block;dashed=1;endFill=0;endSize=12;html=1;rounded=0;exitX=0.5;exitY=0;exitDx=0;exitDy=0;entryX=0.25;entryY=1;entryDx=0;entryDy=0;" edge="1" parent="1" source="F6zSeRQlWIKn3YhWenbm-142" target="F6zSeRQlWIKn3YhWenbm-129">
          <mxGeometry width="160" relative="1" as="geometry">
            <mxPoint x="-248" y="824" as="sourcePoint" />
            <mxPoint x="-88" y="824" as="targetPoint" />
          </mxGeometry>
        </mxCell>
        <mxCell id="F6zSeRQlWIKn3YhWenbm-145" value="" style="endArrow=block;dashed=1;endFill=0;endSize=12;html=1;rounded=0;exitX=0.5;exitY=0;exitDx=0;exitDy=0;entryX=0.5;entryY=1;entryDx=0;entryDy=0;" edge="1" parent="1" source="F6zSeRQlWIKn3YhWenbm-138" target="F6zSeRQlWIKn3YhWenbm-129">
          <mxGeometry width="160" relative="1" as="geometry">
            <mxPoint x="52" y="925" as="sourcePoint" />
            <mxPoint x="233" y="801" as="targetPoint" />
          </mxGeometry>
        </mxCell>
        <mxCell id="F6zSeRQlWIKn3YhWenbm-146" value="" style="endArrow=block;dashed=1;endFill=0;endSize=12;html=1;rounded=0;exitX=0.5;exitY=0;exitDx=0;exitDy=0;entryX=0.75;entryY=1;entryDx=0;entryDy=0;" edge="1" parent="1" source="F6zSeRQlWIKn3YhWenbm-140" target="F6zSeRQlWIKn3YhWenbm-129">
          <mxGeometry width="160" relative="1" as="geometry">
            <mxPoint x="139" y="953" as="sourcePoint" />
            <mxPoint x="136" y="830" as="targetPoint" />
          </mxGeometry>
        </mxCell>
        <mxCell id="F6zSeRQlWIKn3YhWenbm-147" value="" style="endArrow=block;dashed=1;endFill=0;endSize=12;html=1;rounded=0;exitX=0.5;exitY=0;exitDx=0;exitDy=0;entryX=1;entryY=1;entryDx=0;entryDy=0;" edge="1" parent="1" source="F6zSeRQlWIKn3YhWenbm-134" target="F6zSeRQlWIKn3YhWenbm-129">
          <mxGeometry width="160" relative="1" as="geometry">
            <mxPoint x="504" y="969" as="sourcePoint" />
            <mxPoint x="326" y="846" as="targetPoint" />
          </mxGeometry>
        </mxCell>
        <mxCell id="F6zSeRQlWIKn3YhWenbm-148" value="" style="endArrow=block;dashed=1;endFill=0;endSize=12;html=1;rounded=0;exitX=0.5;exitY=0;exitDx=0;exitDy=0;entryX=0;entryY=1;entryDx=0;entryDy=0;" edge="1" parent="1" source="F6zSeRQlWIKn3YhWenbm-136" target="F6zSeRQlWIKn3YhWenbm-129">
          <mxGeometry width="160" relative="1" as="geometry">
            <mxPoint x="-48" y="944" as="sourcePoint" />
            <mxPoint x="105" y="821" as="targetPoint" />
          </mxGeometry>
        </mxCell>
        <mxCell id="F6zSeRQlWIKn3YhWenbm-149" value="расширение" style="text;html=1;align=center;verticalAlign=middle;resizable=0;points=[];autosize=1;strokeColor=none;fillColor=none;" vertex="1" parent="1">
          <mxGeometry x="-220" y="818" width="87" height="26" as="geometry" />
        </mxCell>
        <mxCell id="F6zSeRQlWIKn3YhWenbm-150" value="расширение" style="text;html=1;align=center;verticalAlign=middle;resizable=0;points=[];autosize=1;strokeColor=none;fillColor=none;" vertex="1" parent="1">
          <mxGeometry x="-110.5" y="829" width="87" height="26" as="geometry" />
        </mxCell>
        <mxCell id="F6zSeRQlWIKn3YhWenbm-151" value="расширение" style="text;html=1;align=center;verticalAlign=middle;resizable=0;points=[];autosize=1;strokeColor=none;fillColor=none;" vertex="1" parent="1">
          <mxGeometry x="14.5" y="832" width="87" height="26" as="geometry" />
        </mxCell>
        <mxCell id="F6zSeRQlWIKn3YhWenbm-154" value="расширение" style="text;html=1;align=center;verticalAlign=middle;resizable=0;points=[];autosize=1;strokeColor=none;fillColor=none;" vertex="1" parent="1">
          <mxGeometry x="164" y="827" width="87" height="26" as="geometry" />
        </mxCell>
        <mxCell id="F6zSeRQlWIKn3YhWenbm-155" value="расширение" style="text;html=1;align=center;verticalAlign=middle;resizable=0;points=[];autosize=1;strokeColor=none;fillColor=none;" vertex="1" parent="1">
          <mxGeometry x="262" y="816" width="87" height="26" as="geometry" />
        </mxCell>
        <mxCell id="F6zSeRQlWIKn3YhWenbm-156" value="отображение профиля" style="swimlane;fontStyle=1;align=center;verticalAlign=top;childLayout=stackLayout;horizontal=1;startSize=26;horizontalStack=0;resizeParent=1;resizeParentMax=0;resizeLast=0;collapsible=1;marginBottom=0;whiteSpace=wrap;html=1;" vertex="1" parent="1">
          <mxGeometry x="152" y="568" width="160" height="86" as="geometry" />
        </mxCell>
        <mxCell id="F6zSeRQlWIKn3YhWenbm-157" value="фото профиля" style="text;strokeColor=none;fillColor=none;align=left;verticalAlign=top;spacingLeft=4;spacingRight=4;overflow=hidden;rotatable=0;points=[[0,0.5],[1,0.5]];portConstraint=eastwest;whiteSpace=wrap;html=1;" vertex="1" parent="F6zSeRQlWIKn3YhWenbm-156">
          <mxGeometry y="26" width="160" height="26" as="geometry" />
        </mxCell>
        <mxCell id="F6zSeRQlWIKn3YhWenbm-160" value="" style="line;strokeWidth=1;fillColor=none;align=left;verticalAlign=middle;spacingTop=-1;spacingLeft=3;spacingRight=3;rotatable=0;labelPosition=right;points=[];portConstraint=eastwest;strokeColor=inherit;" vertex="1" parent="F6zSeRQlWIKn3YhWenbm-156">
          <mxGeometry y="52" width="160" height="8" as="geometry" />
        </mxCell>
        <mxCell id="F6zSeRQlWIKn3YhWenbm-161" value="открытьПрофиль()" style="text;strokeColor=none;fillColor=none;align=left;verticalAlign=top;spacingLeft=4;spacingRight=4;overflow=hidden;rotatable=0;points=[[0,0.5],[1,0.5]];portConstraint=eastwest;whiteSpace=wrap;html=1;" vertex="1" parent="F6zSeRQlWIKn3YhWenbm-156">
          <mxGeometry y="60" width="160" height="26" as="geometry" />
        </mxCell>
        <mxCell id="F6zSeRQlWIKn3YhWenbm-163" value="" style="endArrow=none;html=1;endSize=12;startArrow=none;startSize=14;startFill=0;edgeStyle=orthogonalEdgeStyle;align=left;verticalAlign=bottom;rounded=0;entryX=0.471;entryY=0.987;entryDx=0;entryDy=0;entryPerimeter=0;exitX=0.5;exitY=0;exitDx=0;exitDy=0;" edge="1" parent="1" source="F6zSeRQlWIKn3YhWenbm-129" target="F6zSeRQlWIKn3YhWenbm-126">
          <mxGeometry x="-1" y="3" relative="1" as="geometry">
            <mxPoint x="-279" y="675" as="sourcePoint" />
            <mxPoint x="-119" y="675" as="targetPoint" />
          </mxGeometry>
        </mxCell>
        <mxCell id="F6zSeRQlWIKn3YhWenbm-173" value="диаграмма классов" style="text;html=1;align=center;verticalAlign=middle;resizable=0;points=[];autosize=1;strokeColor=none;fillColor=none;" vertex="1" parent="1">
          <mxGeometry x="144" y="455" width="127" height="26" as="geometry" />
        </mxCell>
        <mxCell id="F6zSeRQlWIKn3YhWenbm-177" value="" style="ellipse;html=1;shape=startState;fillColor=#000000;strokeColor=#ff0000;" vertex="1" parent="1">
          <mxGeometry x="915" y="527" width="30" height="30" as="geometry" />
        </mxCell>
        <mxCell id="F6zSeRQlWIKn3YhWenbm-178" value="" style="edgeStyle=orthogonalEdgeStyle;html=1;verticalAlign=bottom;endArrow=open;endSize=8;strokeColor=#ff0000;rounded=0;" edge="1" source="F6zSeRQlWIKn3YhWenbm-177" parent="1">
          <mxGeometry relative="1" as="geometry">
            <mxPoint x="930" y="617" as="targetPoint" />
          </mxGeometry>
        </mxCell>
        <mxCell id="F6zSeRQlWIKn3YhWenbm-179" value="фильтры не применены" style="rounded=1;whiteSpace=wrap;html=1;arcSize=40;fontColor=#000000;fillColor=#ffffc0;strokeColor=#ff0000;" vertex="1" parent="1">
          <mxGeometry x="870" y="616" width="120" height="40" as="geometry" />
        </mxCell>
        <mxCell id="F6zSeRQlWIKn3YhWenbm-180" value="" style="edgeStyle=orthogonalEdgeStyle;html=1;verticalAlign=bottom;endArrow=open;endSize=8;strokeColor=#ff0000;rounded=0;" edge="1" source="F6zSeRQlWIKn3YhWenbm-179" parent="1">
          <mxGeometry relative="1" as="geometry">
            <mxPoint x="1134" y="636" as="targetPoint" />
          </mxGeometry>
        </mxCell>
        <mxCell id="F6zSeRQlWIKn3YhWenbm-181" value="ожидание подтверждения фильтров" style="rounded=1;whiteSpace=wrap;html=1;arcSize=40;fontColor=#000000;fillColor=#ffffc0;strokeColor=#ff0000;" vertex="1" parent="1">
          <mxGeometry x="1135" y="619" width="120" height="40" as="geometry" />
        </mxCell>
        <mxCell id="F6zSeRQlWIKn3YhWenbm-182" value="" style="edgeStyle=orthogonalEdgeStyle;html=1;verticalAlign=bottom;endArrow=open;endSize=8;strokeColor=#ff0000;rounded=0;entryX=0.656;entryY=-0.008;entryDx=0;entryDy=0;entryPerimeter=0;" edge="1" parent="1">
          <mxGeometry relative="1" as="geometry">
            <mxPoint x="957.0199999999998" y="615.6800000000003" as="targetPoint" />
            <mxPoint x="1203.3" y="619" as="sourcePoint" />
            <Array as="points">
              <mxPoint x="1197" y="619" />
              <mxPoint x="1197" y="537" />
              <mxPoint x="957" y="537" />
            </Array>
          </mxGeometry>
        </mxCell>
        <mxCell id="F6zSeRQlWIKn3YhWenbm-183" value="выбор фильтров" style="text;html=1;align=center;verticalAlign=middle;resizable=0;points=[];autosize=1;strokeColor=none;fillColor=none;" vertex="1" parent="1">
          <mxGeometry x="1009" y="613" width="111" height="26" as="geometry" />
        </mxCell>
        <mxCell id="F6zSeRQlWIKn3YhWenbm-184" value="очистка фильтров" style="text;html=1;align=center;verticalAlign=middle;resizable=0;points=[];autosize=1;strokeColor=none;fillColor=none;" vertex="1" parent="1">
          <mxGeometry x="1009" y="515" width="119" height="26" as="geometry" />
        </mxCell>
        <mxCell id="F6zSeRQlWIKn3YhWenbm-185" value="" style="edgeStyle=orthogonalEdgeStyle;html=1;verticalAlign=bottom;endArrow=open;endSize=8;strokeColor=#ff0000;rounded=0;entryX=0;entryY=0.5;entryDx=0;entryDy=0;" edge="1" parent="1" target="F6zSeRQlWIKn3YhWenbm-186">
          <mxGeometry relative="1" as="geometry">
            <mxPoint x="1399" y="638.6199999999999" as="targetPoint" />
            <mxPoint x="1255" y="638.6199999999999" as="sourcePoint" />
          </mxGeometry>
        </mxCell>
        <mxCell id="F6zSeRQlWIKn3YhWenbm-186" value="фильтры применены" style="rounded=1;whiteSpace=wrap;html=1;arcSize=40;fontColor=#000000;fillColor=#ffffc0;strokeColor=#ff0000;" vertex="1" parent="1">
          <mxGeometry x="1435" y="619" width="120" height="40" as="geometry" />
        </mxCell>
        <mxCell id="F6zSeRQlWIKn3YhWenbm-187" value="подтверждение фильтров" style="text;html=1;align=center;verticalAlign=middle;resizable=0;points=[];autosize=1;strokeColor=none;fillColor=none;" vertex="1" parent="1">
          <mxGeometry x="1266" y="616" width="162" height="26" as="geometry" />
        </mxCell>
        <mxCell id="F6zSeRQlWIKn3YhWenbm-188" value="" style="edgeStyle=orthogonalEdgeStyle;html=1;verticalAlign=bottom;endArrow=open;endSize=8;strokeColor=#ff0000;rounded=0;entryX=0.473;entryY=1.052;entryDx=0;entryDy=0;exitX=0.5;exitY=1;exitDx=0;exitDy=0;entryPerimeter=0;" edge="1" parent="1" source="F6zSeRQlWIKn3YhWenbm-186" target="F6zSeRQlWIKn3YhWenbm-179">
          <mxGeometry relative="1" as="geometry">
            <mxPoint x="1614" y="686.3800000000001" as="targetPoint" />
            <mxPoint x="1434" y="686" as="sourcePoint" />
            <Array as="points">
              <mxPoint x="1495" y="702" />
              <mxPoint x="927" y="702" />
            </Array>
          </mxGeometry>
        </mxCell>
        <mxCell id="F6zSeRQlWIKn3YhWenbm-189" value="отмена фильтров" style="text;html=1;align=center;verticalAlign=middle;resizable=0;points=[];autosize=1;strokeColor=none;fillColor=none;" vertex="1" parent="1">
          <mxGeometry x="1147" y="700" width="116" height="26" as="geometry" />
        </mxCell>
        <mxCell id="F6zSeRQlWIKn3YhWenbm-190" value="" style="edgeStyle=orthogonalEdgeStyle;html=1;verticalAlign=bottom;endArrow=open;endSize=8;strokeColor=#ff0000;rounded=0;entryX=0.585;entryY=-0.005;entryDx=0;entryDy=0;exitX=0.5;exitY=0;exitDx=0;exitDy=0;entryPerimeter=0;" edge="1" parent="1" source="F6zSeRQlWIKn3YhWenbm-186" target="F6zSeRQlWIKn3YhWenbm-181">
          <mxGeometry relative="1" as="geometry">
            <mxPoint x="1678" y="582.3800000000001" as="targetPoint" />
            <mxPoint x="1498" y="582" as="sourcePoint" />
            <Array as="points">
              <mxPoint x="1495" y="536" />
              <mxPoint x="1205" y="536" />
            </Array>
          </mxGeometry>
        </mxCell>
        <mxCell id="F6zSeRQlWIKn3YhWenbm-191" value="редактирование существующих фильтров" style="text;html=1;align=center;verticalAlign=middle;resizable=0;points=[];autosize=1;strokeColor=none;fillColor=none;" vertex="1" parent="1">
          <mxGeometry x="1215" y="512" width="253" height="26" as="geometry" />
        </mxCell>
        <mxCell id="F6zSeRQlWIKn3YhWenbm-192" value="диаграмма состояний" style="text;html=1;align=center;verticalAlign=middle;resizable=0;points=[];autosize=1;strokeColor=none;fillColor=none;" vertex="1" parent="1">
          <mxGeometry x="824" y="455" width="140" height="26" as="geometry" />
        </mxCell>
      </root>
    </mxGraphModel>
  </diagram>
</mxfile>
